<svg width="214" height="27" viewBox="0 0 214 27" fill="none" xmlns="http://www.w3.org/2000/svg">
<path d="M208.619 20.8121C207.18 20.8121 205.915 20.4567 204.823 19.7461C203.748 19.0354 202.994 18.0821 202.561 16.8861L204.823 15.8201C205.204 16.6174 205.724 17.2501 206.383 17.7181C207.059 18.1861 207.804 18.4201 208.619 18.4201C209.312 18.4201 209.876 18.2641 210.309 17.9521C210.742 17.6401 210.959 17.2154 210.959 16.6781C210.959 16.3314 210.864 16.0541 210.673 15.8461C210.482 15.6207 210.24 15.4387 209.945 15.3001C209.668 15.1614 209.382 15.0574 209.087 14.9881L206.877 14.3641C205.664 14.0174 204.754 13.4974 204.147 12.8041C203.558 12.0934 203.263 11.2701 203.263 10.3341C203.263 9.48474 203.48 8.74807 203.913 8.12407C204.346 7.48274 204.944 6.98874 205.707 6.64207C206.47 6.2954 207.328 6.12207 208.281 6.12207C209.564 6.12207 210.708 6.44274 211.713 7.08407C212.718 7.70807 213.429 8.5834 213.845 9.71007L211.583 10.7761C211.306 10.1001 210.864 9.56274 210.257 9.16407C209.668 8.7654 209 8.56607 208.255 8.56607C207.614 8.56607 207.102 8.72207 206.721 9.03407C206.34 9.32874 206.149 9.71874 206.149 10.2041C206.149 10.5334 206.236 10.8107 206.409 11.0361C206.582 11.2441 206.808 11.4174 207.085 11.5561C207.362 11.6774 207.648 11.7814 207.943 11.8681L210.231 12.5441C211.392 12.8734 212.285 13.3934 212.909 14.1041C213.533 14.7974 213.845 15.6294 213.845 16.6001C213.845 17.4321 213.62 18.1687 213.169 18.8101C212.736 19.4341 212.129 19.9281 211.349 20.2921C210.569 20.6387 209.659 20.8121 208.619 20.8121Z" fill="black"/>
<path d="M188.185 20.5001V6.43407H190.993V9.19007L190.655 8.82607C191.001 7.94207 191.556 7.27474 192.319 6.82407C193.081 6.35607 193.965 6.12207 194.971 6.12207C196.011 6.12207 196.929 6.3474 197.727 6.79807C198.524 7.24874 199.148 7.87274 199.599 8.67007C200.049 9.46741 200.275 10.3861 200.275 11.4261V20.5001H197.363V12.2061C197.363 11.4954 197.233 10.8974 196.973 10.4121C196.713 9.9094 196.34 9.52807 195.855 9.26807C195.387 8.99074 194.849 8.85207 194.243 8.85207C193.636 8.85207 193.09 8.99074 192.605 9.26807C192.137 9.52807 191.773 9.9094 191.513 10.4121C191.253 10.9147 191.123 11.5127 191.123 12.2061V20.5001H188.185Z" fill="black"/>
<path d="M177.934 26.2201C176.911 26.2201 175.966 26.0554 175.1 25.7261C174.233 25.3967 173.488 24.9374 172.864 24.3481C172.24 23.7761 171.772 23.1001 171.46 22.3201L174.164 21.2021C174.406 21.8607 174.848 22.4067 175.49 22.8401C176.148 23.2734 176.954 23.4901 177.908 23.4901C178.653 23.4901 179.32 23.3427 179.91 23.0481C180.499 22.7707 180.967 22.3547 181.314 21.8001C181.66 21.2627 181.834 20.6127 181.834 19.8501V16.6781L182.354 17.2761C181.868 18.1774 181.192 18.8621 180.326 19.3301C179.476 19.7981 178.514 20.0321 177.44 20.0321C176.14 20.0321 174.97 19.7287 173.93 19.1221C172.89 18.5154 172.066 17.6834 171.46 16.6261C170.87 15.5687 170.576 14.3814 170.576 13.0641C170.576 11.7294 170.87 10.5421 171.46 9.50207C172.066 8.46207 172.881 7.63874 173.904 7.03207C174.926 6.4254 176.096 6.12207 177.414 6.12207C178.488 6.12207 179.442 6.35607 180.274 6.82407C181.123 7.27474 181.816 7.9334 182.354 8.80007L181.964 9.52807V6.43407H184.746V19.8501C184.746 21.0634 184.451 22.1467 183.862 23.1001C183.29 24.0707 182.492 24.8334 181.47 25.3881C180.447 25.9427 179.268 26.2201 177.934 26.2201ZM177.778 17.3021C178.558 17.3021 179.251 17.1201 179.858 16.7561C180.464 16.3747 180.941 15.8721 181.288 15.2481C181.652 14.6067 181.834 13.8874 181.834 13.0901C181.834 12.2927 181.652 11.5734 181.288 10.9321C180.924 10.2907 180.438 9.78807 179.832 9.42407C179.225 9.04274 178.54 8.85207 177.778 8.85207C176.98 8.85207 176.27 9.04274 175.646 9.42407C175.022 9.78807 174.528 10.2907 174.164 10.9321C173.817 11.5561 173.644 12.2754 173.644 13.0901C173.644 13.8701 173.817 14.5807 174.164 15.2221C174.528 15.8634 175.022 16.3747 175.646 16.7561C176.27 17.1201 176.98 17.3021 177.778 17.3021Z" fill="black"/>
<path d="M164.774 20.4999V6.43388H167.712V20.4999H164.774ZM164.774 4.50988V1.12988H167.712V4.50988H164.774Z" fill="black"/>
<path d="M156.67 20.8121C155.231 20.8121 153.966 20.4567 152.874 19.7461C151.799 19.0354 151.045 18.0821 150.612 16.8861L152.874 15.8201C153.255 16.6174 153.775 17.2501 154.434 17.7181C155.11 18.1861 155.855 18.4201 156.67 18.4201C157.363 18.4201 157.926 18.2641 158.36 17.9521C158.793 17.6401 159.01 17.2154 159.01 16.6781C159.01 16.3314 158.914 16.0541 158.724 15.8461C158.533 15.6207 158.29 15.4387 157.996 15.3001C157.718 15.1614 157.432 15.0574 157.138 14.9881L154.928 14.3641C153.714 14.0174 152.804 13.4974 152.198 12.8041C151.608 12.0934 151.314 11.2701 151.314 10.3341C151.314 9.48474 151.53 8.74807 151.964 8.12407C152.397 7.48274 152.995 6.98874 153.758 6.64207C154.52 6.2954 155.378 6.12207 156.332 6.12207C157.614 6.12207 158.758 6.44274 159.764 7.08407C160.769 7.70807 161.48 8.5834 161.896 9.71007L159.634 10.7761C159.356 10.1001 158.914 9.56274 158.308 9.16407C157.718 8.7654 157.051 8.56607 156.306 8.56607C155.664 8.56607 155.153 8.72207 154.772 9.03407C154.39 9.32874 154.2 9.71874 154.2 10.2041C154.2 10.5334 154.286 10.8107 154.46 11.0361C154.633 11.2441 154.858 11.4174 155.136 11.5561C155.413 11.6774 155.699 11.7814 155.994 11.8681L158.282 12.5441C159.443 12.8734 160.336 13.3934 160.96 14.1041C161.584 14.7974 161.896 15.6294 161.896 16.6001C161.896 17.4321 161.67 18.1687 161.22 18.8101C160.786 19.4341 160.18 19.9281 159.4 20.2921C158.62 20.6387 157.71 20.8121 156.67 20.8121Z" fill="black"/>
<path d="M142.129 20.8121C140.725 20.8121 139.477 20.4914 138.385 19.8501C137.31 19.1914 136.469 18.3074 135.863 17.1981C135.256 16.0714 134.953 14.8147 134.953 13.4281C134.953 12.0067 135.256 10.7501 135.863 9.65807C136.487 8.56607 137.319 7.70807 138.359 7.08407C139.399 6.44274 140.577 6.12207 141.895 6.12207C142.952 6.12207 143.897 6.30407 144.729 6.66807C145.561 7.03207 146.263 7.53474 146.835 8.17607C147.407 8.80007 147.84 9.5194 148.135 10.3341C148.447 11.1487 148.603 12.0154 148.603 12.9341C148.603 13.1594 148.594 13.3934 148.577 13.6361C148.559 13.8787 148.525 14.1041 148.473 14.3121H137.267V11.9721H146.809L145.405 13.0381C145.578 12.1887 145.517 11.4347 145.223 10.7761C144.945 10.1001 144.512 9.5714 143.923 9.19007C143.351 8.7914 142.675 8.59207 141.895 8.59207C141.115 8.59207 140.421 8.7914 139.815 9.19007C139.208 9.5714 138.74 10.1261 138.411 10.8541C138.081 11.5647 137.951 12.4314 138.021 13.4541C137.934 14.4074 138.064 15.2394 138.411 15.9501C138.775 16.6607 139.277 17.2154 139.919 17.6141C140.577 18.0127 141.323 18.2121 142.155 18.2121C143.004 18.2121 143.723 18.0214 144.313 17.6401C144.919 17.2587 145.396 16.7647 145.743 16.1581L148.135 17.3281C147.857 17.9867 147.424 18.5847 146.835 19.1221C146.263 19.6421 145.569 20.0581 144.755 20.3701C143.957 20.6647 143.082 20.8121 142.129 20.8121Z" fill="black"/>
<path d="M116.539 20.4999V1.12988H122.883C124.894 1.12988 126.636 1.53722 128.109 2.35188C129.6 3.14922 130.752 4.27588 131.567 5.73188C132.382 7.18788 132.789 8.87788 132.789 10.8019C132.789 12.7086 132.382 14.3986 131.567 15.8719C130.752 17.3279 129.6 18.4632 128.109 19.2779C126.636 20.0926 124.894 20.4999 122.883 20.4999H116.539ZM119.607 17.7699H122.935C124.304 17.7699 125.492 17.4839 126.497 16.9119C127.52 16.3399 128.308 15.5339 128.863 14.4939C129.418 13.4539 129.695 12.2232 129.695 10.8019C129.695 9.38055 129.409 8.15855 128.837 7.13588C128.282 6.09588 127.502 5.28988 126.497 4.71788C125.492 4.14588 124.304 3.85988 122.935 3.85988H119.607V17.7699Z" fill="black"/>
<path d="M98.1536 26.2196C97.8069 26.2196 97.4603 26.1849 97.1136 26.1156C96.7843 26.0636 96.4809 25.9769 96.2036 25.8556V23.3336C96.4116 23.3856 96.6629 23.4289 96.9576 23.4636C97.2522 23.5156 97.5382 23.5416 97.8156 23.5416C98.6302 23.5416 99.2282 23.3596 99.6096 22.9956C100.008 22.6489 100.364 22.1116 100.676 21.3836L101.612 19.2516L101.56 21.7216L95.4756 6.43359H98.6216L103.12 18.1596H102.054L106.526 6.43359H109.698L103.484 22.0336C103.154 22.8656 102.738 23.5936 102.236 24.2176C101.75 24.8589 101.17 25.3529 100.494 25.6996C99.8349 26.0463 99.0549 26.2196 98.1536 26.2196Z" fill="black"/>
<path d="M86.0863 20.8121C85.1329 20.8121 84.2922 20.6474 83.5642 20.3181C82.8536 19.9714 82.2989 19.5034 81.9002 18.9141C81.5016 18.3074 81.3022 17.5967 81.3022 16.7821C81.3022 16.0194 81.4669 15.3347 81.7962 14.7281C82.1429 14.1214 82.6716 13.6101 83.3822 13.1941C84.0929 12.7781 84.9856 12.4834 86.0602 12.3101L90.9482 11.5041V13.8181L86.6322 14.5721C85.8522 14.7107 85.2803 14.9621 84.9163 15.3261C84.5523 15.6727 84.3702 16.1234 84.3702 16.6781C84.3702 17.2154 84.5696 17.6574 84.9682 18.0041C85.3842 18.3334 85.9129 18.4981 86.5543 18.4981C87.3516 18.4981 88.0449 18.3247 88.6342 17.9781C89.2409 17.6314 89.7089 17.1721 90.0382 16.6001C90.3676 16.0107 90.5322 15.3607 90.5322 14.6501V11.0361C90.5322 10.3427 90.2723 9.7794 89.7523 9.34607C89.2496 8.8954 88.5736 8.67007 87.7243 8.67007C86.9443 8.67007 86.2596 8.87807 85.6702 9.29407C85.0982 9.69274 84.6736 10.2127 84.3962 10.8541L81.9522 9.63207C82.2122 8.93874 82.6369 8.33207 83.2262 7.81207C83.8156 7.27474 84.5003 6.85874 85.2803 6.56407C86.0776 6.2694 86.9182 6.12207 87.8022 6.12207C88.9116 6.12207 89.8909 6.33007 90.7402 6.74607C91.6069 7.16207 92.2742 7.74274 92.7422 8.48807C93.2276 9.21607 93.4703 10.0654 93.4703 11.0361V20.5001H90.6622V17.9521L91.2602 18.0301C90.9309 18.6021 90.5063 19.0961 89.9863 19.5121C89.4836 19.9281 88.9029 20.2487 88.2442 20.4741C87.6029 20.6994 86.8836 20.8121 86.0863 20.8121Z" fill="black"/>
<path d="M63.546 20.4996L58.71 6.43359H61.83L65.522 17.6396H64.43L68.2 6.43359H70.878L74.622 17.6396H73.53L77.248 6.43359H80.368L75.506 20.4996H72.854L69.058 9.03359H70.02L66.224 20.4996H63.546Z" fill="black"/>
<path d="M44.9053 20.5004V0.818359H47.8433V9.19036L47.3753 8.82636C47.7219 7.94236 48.2766 7.27503 49.0393 6.82436C49.8019 6.35636 50.6859 6.12236 51.6913 6.12236C52.7313 6.12236 53.6499 6.34769 54.4473 6.79836C55.2446 7.24903 55.8686 7.87303 56.3193 8.67036C56.7699 9.46769 56.9953 10.3777 56.9953 11.4004V20.5004H54.0833V12.2064C54.0833 11.4957 53.9446 10.8977 53.6673 10.4124C53.4073 9.90969 53.0433 9.52836 52.5753 9.26836C52.1073 8.99103 51.5699 8.85236 50.9633 8.85236C50.3739 8.85236 49.8366 8.99103 49.3513 9.26836C48.8833 9.52836 48.5106 9.90969 48.2333 10.4124C47.9733 10.915 47.8433 11.513 47.8433 12.2064V20.5004H44.9053Z" fill="black"/>
<path d="M35.8199 20.8121C34.4159 20.8121 33.1679 20.4914 32.0759 19.8501C31.0012 19.1914 30.1433 18.3074 29.5019 17.1981C28.8779 16.0887 28.5659 14.8321 28.5659 13.4281C28.5659 12.0414 28.8779 10.7934 29.5019 9.68407C30.1259 8.57474 30.9839 7.70807 32.0759 7.08407C33.1679 6.44274 34.4159 6.12207 35.8199 6.12207C36.7732 6.12207 37.6659 6.2954 38.4979 6.64207C39.3299 6.9714 40.0493 7.43074 40.6559 8.02007C41.2799 8.6094 41.7392 9.29407 42.0339 10.0741L39.4599 11.2701C39.1653 10.5421 38.6886 9.9614 38.0299 9.52807C37.3886 9.0774 36.6519 8.85207 35.8199 8.85207C35.0226 8.85207 34.3033 9.0514 33.6619 9.45007C33.0379 9.8314 32.5439 10.3774 32.1799 11.0881C31.8159 11.7814 31.6339 12.5701 31.6339 13.4541C31.6339 14.3381 31.8159 15.1354 32.1799 15.8461C32.5439 16.5394 33.0379 17.0854 33.6619 17.4841C34.3033 17.8827 35.0226 18.0821 35.8199 18.0821C36.6692 18.0821 37.4059 17.8654 38.0299 17.4321C38.6713 16.9814 39.1479 16.3834 39.4599 15.6381L42.0339 16.8601C41.7566 17.6054 41.3059 18.2814 40.6819 18.8881C40.0753 19.4774 39.3559 19.9454 38.5239 20.2921C37.6919 20.6387 36.7906 20.8121 35.8199 20.8121Z" fill="black"/>
<path d="M19.7178 20.5V6.43395H22.5258V9.26795L22.2658 8.85195C22.5778 7.93329 23.0804 7.27462 23.7738 6.87595C24.4671 6.45995 25.2991 6.25195 26.2698 6.25195H27.1278V8.92995H25.9058C24.9351 8.92995 24.1464 9.23329 23.5398 9.83995C22.9504 10.4293 22.6558 11.2786 22.6558 12.388V20.5H19.7178Z" fill="black"/>
<path d="M0.286133 20.4999L7.09813 1.12988H10.8941L17.7061 20.4999H14.4301L12.9481 16.1579H5.07013L3.56213 20.4999H0.286133ZM5.95413 13.4279H12.0121L8.58013 3.28788H9.43813L5.95413 13.4279Z" fill="black"/>
</svg>
